<?xml version="1.0" encoding="UTF-8" standalone="no"?>
<svg
   version="1.1"
   width="6.2992in"
   height="2.3622in"
   viewBox="0 0 453.5433 170.0787"
   id="svg38"
   sodipodi:docname="Logo.svg"
   inkscape:version="1.4.4 (dcaf3e7, 2026-05-05)"
   xmlns:inkscape="http://www.inkscape.org/namespaces/inkscape"
   xmlns:sodipodi="http://sodipodi.sourceforge.net/DTD/sodipodi-0.dtd"
   xmlns:xlink="http://www.w3.org/1999/xlink"
   xmlns="http://www.w3.org/2000/svg"
   xmlns:svg="http://www.w3.org/2000/svg">
  <sodipodi:namedview
     id="namedview38"
     pagecolor="#ffffff"
     bordercolor="#000000"
     borderopacity="0.25"
     inkscape:showpageshadow="2"
     inkscape:pageopacity="0.0"
     inkscape:pagecheckerboard="0"
     inkscape:deskcolor="#d1d1d1"
     inkscape:document-units="in"
     inkscape:zoom="2.9319199"
     inkscape:cx="302.53214"
     inkscape:cy="113.40692"
     inkscape:window-width="1920"
     inkscape:window-height="991"
     inkscape:window-x="-9"
     inkscape:window-y="-9"
     inkscape:window-maximized="1"
     inkscape:current-layer="svg38" />
  <defs
     id="defs2">
    <radialGradient
       id="grad1"
       cx="46.0000%"
       cy="46.0000%"
       r="100.0000%">
      <stop
         offset="0%"
         stop-color="#005d9d"
         stop-opacity="1.0000"
         id="stop1" />
      <stop
         offset="100%"
         stop-color="#0c154a"
         stop-opacity="1.0000"
         id="stop2" />
    </radialGradient>
  </defs>
  <path
     d="  M234.1449,59.1715 C238.9365,59.1193 244.8521,59.1919 249.1364,60.8086 C253.2393,62.3567 254.6264,64.7073 254.6264,69.4465 C254.6264,75.6261 248.8263,77.6320 243.8872,78.4168 C239.8022,79.0659 230.0483,79.1758 225.1805,79.4328 C226.7952,87.0870 254.7330,118.3992 257.3230,121.4740 C257.9341,122.1785 258.1185,122.6293 258.5479,122.6261 L281.0136,122.4698 C280.4412,121.0277 277.1418,117.3114 275.9990,116.2878 C275.9492,116.2430 254.8392,92.6976 253.9153,90.3682 C256.6688,89.2933 257.6394,89.4654 261.1963,87.6928 C269.7138,83.4481 272.7963,77.4636 272.7963,67.8875 C272.7963,60.5385 269.1131,54.9397 265.3369,51.9978 C260.3354,48.1011 255.0646,46.8934 247.2560,46.8879 C231.8303,46.8774 216.4277,46.4658 201.0161,46.4656 C200.9104,49.7782 200.9999,54.5461 200.9999,58.0135 C200.9999,78.7071 201.2476,99.5689 201.1916,120.2453 C201.1887,121.3267 201.0013,122.1910 202.0840,122.4487 C203.0775,122.6850 215.9648,122.5126 218.8263,122.4986 L219.0150,59.5007 L234.1449,59.1715 Z"
     style="fill: url(#grad1); "
     id="path2" />
  <defs
     id="defs5">
    <linearGradient
       id="grad2">
      <stop
         offset="0.0000%"
         stop-color="#0088b9"
         stop-opacity="1.0000"
         id="stop3" />
      <stop
         offset="49.0000%"
         stop-color="#009ee0"
         stop-opacity="1.0000"
         id="stop4" />
      <stop
         offset="100.0000%"
         stop-color="#0087b8"
         stop-opacity="1.0000"
         id="stop5" />
    </linearGradient>
    <linearGradient
       xlink:href="#grad2"
       id="grad3"
       x1="0"
       y1="0"
       x2="0"
       y2="1"
       gradientTransform="rotate(90 .5 .5)"
       gradientUnits="objectBoundingBox" />
  </defs>
  <path
     d="  M322.2476,122.9734 L336.0895,122.9734 C336.1249,122.9579 336.1706,122.9457 336.2000,122.9386 L336.5507,122.8637 C336.6394,122.8527 336.8398,122.8470 336.9368,122.8433 C339.9670,122.7240 344.2105,122.5791 347.2883,122.1018 L347.2883,109.0477 C341.2440,108.5264 330.3363,109.0329 323.9629,109.0344 C317.9648,109.0916 313.1929,109.4550 307.3652,107.3752 C303.2065,105.8913 302.8550,103.4909 302.1732,99.4898 C301.9674,98.2811 301.8461,97.1529 301.7837,95.9289 C301.7177,93.8537 301.8685,91.8289 302.0856,89.7676 C303.1605,89.5465 306.4334,89.7055 307.7391,89.7055 C320.9587,89.7055 334.0542,89.8347 347.2883,89.7452 L347.2883,76.0377 C332.2908,76.0385 317.1192,76.1136 302.0156,76.1136 C301.3194,62.6148 304.4537,59.4286 317.7320,59.2087 C327.0481,59.0542 337.8084,59.2313 347.2883,58.7412 L347.2883,46.5718 C342.4025,46.2923 327.7704,46.1764 326.4290,46.2237 C317.1847,46.5491 304.0608,45.9045 295.6615,49.5635 C294.3176,50.1489 293.1812,50.8674 292.0286,51.6390 C288.7628,53.8248 285.7564,57.4356 284.5332,61.2904 C282.7706,66.8458 283.0107,76.6675 283.2843,82.6350 C283.4541,86.3379 283.1168,90.1477 283.2849,93.8075 C283.4583,97.5892 283.3512,100.7957 283.9946,104.5125 C285.1149,110.9826 287.9422,114.7340 293.3240,117.9147 C299.1152,121.3373 304.8318,121.9399 311.4998,122.4272 C312.7609,122.5191 322.0214,122.8822 322.2476,122.9734 Z"
     style="fill: url(#grad3); "
     id="path5" />
  <defs
     id="defs7">
    <radialGradient
       id="grad4"
       cx="50.0000%"
       cy="50.0000%"
       r="100.0000%">
      <stop
         offset="0%"
         stop-color="#39bcdf"
         stop-opacity="1.0000"
         id="stop6" />
      <stop
         offset="100%"
         stop-color="#00aeda"
         stop-opacity="1.0000"
         id="stop7" />
    </radialGradient>
  </defs>
  <path
     d="  M437.1417,122.0266 L437.1417,121.9517 C432.3065,117.2192 405.5747,83.6020 405.1705,82.2072 C404.4090,79.5805 430.8993,51.4444 432.5735,46.8379 C430.3720,46.6741 427.5969,46.7366 425.3307,46.7341 C421.3625,46.6928 416.8459,46.8872 412.9744,46.7026 C409.0238,51.6919 399.3128,64.1582 395.6083,68.3822 C391.9601,64.7290 383.8147,53.4796 379.4422,48.3393 L377.8902,46.7997 C376.2822,46.6766 366.7616,46.7037 364.4530,46.7193 C362.6317,46.7317 358.8700,46.4645 357.2410,46.7514 C361.9378,55.6236 376.3824,72.1720 384.4196,81.7612 C383.7729,84.4737 358.6543,114.9893 352.8408,122.2599 C354.0137,122.4924 368.8603,122.2176 371.9895,122.2434 C372.9400,122.2512 373.0937,122.4222 373.5091,121.7756 C376.4814,117.1493 391.5329,97.2451 394.3104,96.0348 C398.4097,99.3281 411.2988,117.3576 414.6883,122.2829 L437.1417,122.0266 Z"
     style="fill: url(#grad4); "
     id="path7" />
  <path
     d="  M11.5535,78.7291 L11.5535,86.3824 C11.5694,86.4193 11.5821,86.4660 11.5903,86.4975 L11.9159,89.4752 C12.0299,90.4850 12.1778,91.4731 12.3458,92.4360 C13.8831,101.2459 17.6820,108.3650 24.8594,113.5512 C36.5631,122.0080 55.7443,122.3338 70.0801,121.7423 C74.2641,121.5697 78.5589,121.1487 82.7107,121.0093 L82.6197,107.4410 C81.7360,107.3444 79.2630,107.7138 78.1875,107.8230 C73.6669,108.2817 69.1636,108.7111 64.6436,108.9013 C46.8318,109.6512 30.9573,106.5371 30.7243,83.9976 C30.6053,72.4794 33.4154,62.8936 45.1660,59.1797 C52.6982,56.7989 64.0474,57.3454 72.3136,57.9456 L81.4961,58.5455 L81.5410,46.7104 C81.3106,45.7528 78.4755,45.6945 77.8243,45.6199 L64.6909,44.5019 L55.1519,44.5019 C54.9260,44.5923 47.4033,45.1203 46.2047,45.2716 C43.4440,45.6199 40.5847,46.0930 37.9893,46.7961 C23.2956,50.7772 14.2514,59.2100 12.0726,74.3833 L11.5535,78.7291 Z"
     style="fill-rule: evenodd; fill: #002f68; "
     id="path8" />
  <g
     id="Layer1000">
    <path
       d="  M113.8783,19.9655 C125.4549,16.0935 128.5779,32.3582 120.0733,35.3177 C108.1451,39.4686 104.7988,23.0024 113.8783,19.9655 Z Z M112.7305,16.1626 C96.0735,19.9266 102.0006,43.8759 121.2613,39.0881 C137.0169,35.1715 132.2408,11.7539 112.7305,16.1626 Z"
       style="fill-rule: evenodd; fill: #009cc1; "
       id="path9" />
    <path
       d="  M195.5195,39.2148 L195.6434,29.5347 L207.9575,29.4863 L208.1652,39.0659 L213.5952,39.0921 L213.8585,16.0540 L208.3050,15.9758 L208.1964,25.2426 L195.5277,25.3242 L195.6517,15.9982 L189.9897,15.9917 C189.5857,20.4815 189.9224,25.9348 189.9255,30.4823 C189.9289,35.1991 189.8589,38.0917 190.0111,39.0813 C191.1688,39.4378 192.3521,39.1692 195.5195,39.2148 Z"
       style="fill-rule: evenodd; fill: #009cc1; "
       id="path10" />
    <path
       d="  M30.1068,35.0995 L29.4639,39.0628 C35.9866,39.8549 47.7192,41.6124 49.7886,34.8279 C52.6825,25.3400 40.0890,26.5583 35.8236,23.4334 C35.3311,22.1965 35.5419,21.1607 36.0773,20.6254 C37.9707,18.7331 44.0549,19.8700 47.1143,20.0143 L48.5031,20.0392 C48.5266,19.9006 48.5399,19.7504 48.5488,19.5743 L48.7658,16.5966 C46.3884,15.0845 36.6892,15.5683 33.8910,16.4971 C29.3769,17.9958 27.6165,24.2744 32.5431,27.2132 C35.5064,28.9805 44.0585,29.4032 43.9305,33.0035 C43.7675,37.5890 33.5778,34.9833 30.1068,35.0995 Z"
       style="fill-rule: evenodd; fill: #002f68; "
       id="path11" />
    <path
       d="  M158.3573,16.3325 L153.2472,16.2832 C153.2694,19.0165 153.3426,21.8340 153.3746,24.6205 C153.4122,27.9078 153.3509,32.7662 150.1893,34.6431 C147.7436,36.0951 143.2770,35.2657 141.6008,32.8973 C140.4648,31.2924 140.5385,28.8356 140.3895,26.9273 C140.1813,24.2584 140.0805,21.6161 140.2229,18.9501 C140.2751,17.9718 140.3290,16.9936 140.3637,16.0144 L135.2918,16.3545 C135.2900,17.8870 135.2882,19.4195 135.2864,20.9519 C135.2822,24.2328 135.2262,27.5679 135.2736,30.8419 C135.4930,37.9917 143.2126,40.6541 149.2936,39.6263 C152.9610,39.0064 156.1368,37.3508 157.8028,33.8836 C158.5303,32.3067 158.2684,29.8252 158.2804,28.0624 C158.3066,24.1524 158.3317,20.2425 158.3573,16.3325 Z"
       style="fill-rule: evenodd; fill: #009cc1; "
       id="path12" />
    <path
       d="  M184.8168,39.1448 L184.3280,35.3345 C178.4840,34.8408 168.1537,37.2671 168.4154,27.2763 C168.5160,23.4360 170.6058,21.1281 173.5480,20.2187 C177.6566,18.9496 181.8782,19.9341 184.7365,20.1121 L185.0577,16.4795 C174.6493,14.3386 162.9585,16.2541 162.6586,27.2711 C162.3406,38.9273 174.4983,40.3108 184.8168,39.1448 Z"
       style="fill-rule: evenodd; fill: #009cc1; "
       id="path13" />
    <path
       d="  M80.1764,19.8249 L88.1636,20.0390 L88.3504,39.1072 L93.7113,39.1432 L93.9999,20.0561 L101.4886,19.9082 L101.6661,16.0151 L80.2448,15.9229 L80.1764,19.8249 Z"
       style="fill-rule: evenodd; fill: #009cc1; "
       id="path14" />
    <path
       d="  M54.1334,39.3318 L72.0879,39.4935 L72.0906,35.2539 L59.8662,35.2315 L59.9178,16.3949 L54.0761,15.9917 L54.1334,39.3318 Z"
       style="fill-rule: evenodd; fill: #002f68; "
       id="path15" />
  </g>
  <path
     d="  M157.9516,150.1611 L157.9516,135.6318 L163.1086,135.6318 C164.2819,135.6318 165.3083,135.8226 166.1885,136.2047 C167.0683,136.5868 167.8051,137.1053 168.3984,137.7601 C168.9919,138.4149 169.4387,139.1822 169.7389,140.0621 C170.0391,140.9423 170.1890,141.8800 170.1890,142.8761 C170.1890,143.9810 170.0220,144.9802 169.6876,145.8740 C169.3534,146.7675 168.8794,147.5314 168.2654,148.1658 C167.6514,148.8002 166.9079,149.2914 166.0348,149.6392 C165.1618,149.9871 164.1864,150.1611 163.1086,150.1611 L157.9516,150.1611 Z Z M167.8561,142.8761 C167.8561,142.1118 167.7504,141.4094 167.5389,140.7682 C167.3274,140.1270 167.0170,139.5780 166.6080,139.1207 C166.1987,138.6638 165.7006,138.3058 165.1141,138.0464 C164.5274,137.7873 163.8590,137.6578 163.1086,137.6578 L160.2437,137.6578 L160.2437,148.1352 L163.1086,148.1352 C163.8726,148.1352 164.5512,148.0022 165.1448,147.7361 C165.7380,147.4702 166.2361,147.1017 166.6386,146.6311 C167.0411,146.1603 167.3444,145.6044 167.5491,144.9632 C167.7538,144.3220 167.8561,143.6264 167.8561,142.8761 Z Z M172.2557,150.1611 L172.2557,139.4586 L174.5067,139.4586 L174.5067,150.1611 L172.2557,150.1611 Z Z M172.2557,137.6986 L172.2557,135.2225 L174.5067,135.2225 L174.5067,137.6986 L172.2557,137.6986 Z Z M181.1577,150.3658 C180.7211,150.3658 180.2812,150.3317 179.8379,150.2634 C179.3942,150.1951 178.9577,150.0962 178.5280,149.9666 C178.0982,149.8371 177.6889,149.6801 177.3003,149.4961 C176.9114,149.3118 176.5670,149.1038 176.2668,148.8719 L177.2082,147.3576 C178.5178,148.2715 179.8206,148.7288 181.1169,148.7288 C181.7989,148.7288 182.3377,148.5989 182.7334,148.3398 C183.1289,148.0805 183.3267,147.7123 183.3267,147.2349 C183.3267,146.7845 183.1051,146.4537 182.6617,146.2422 C182.2184,146.0307 181.5123,145.8091 180.5437,145.5772 C179.8753,145.4134 179.3024,145.2464 178.8248,145.0757 C178.3474,144.9054 177.9585,144.7143 177.6583,144.5029 C177.3581,144.2914 177.1398,144.0391 177.0035,143.7457 C176.8671,143.4523 176.7988,143.1011 176.7988,142.6918 C176.7988,142.1461 176.9080,141.6617 177.1262,141.2388 C177.3445,140.8158 177.6413,140.4578 178.0163,140.1644 C178.3916,139.8711 178.8350,139.6494 179.3466,139.4994 C179.8583,139.3495 180.4073,139.2744 180.9938,139.2744 C181.7717,139.2744 182.5220,139.3971 183.2451,139.6426 C183.9679,139.8883 184.6159,140.2226 185.1891,140.6455 L184.2273,142.0166 C183.2040,141.2524 182.1127,140.8706 180.9530,140.8706 C180.3801,140.8706 179.8957,140.9899 179.5000,141.2286 C179.1045,141.4672 178.9067,141.8460 178.9067,142.3644 C178.9067,142.5827 178.9475,142.7669 179.0294,142.9169 C179.1113,143.0668 179.2443,143.1967 179.4285,143.3058 C179.6125,143.4149 179.8549,143.5139 180.1551,143.6023 C180.4550,143.6910 180.8235,143.7900 181.2600,143.8991 C181.9967,144.0765 182.6311,144.2540 183.1632,144.4311 C183.6952,144.6086 184.1352,144.8167 184.4830,145.0553 C184.8308,145.2940 185.0868,145.5738 185.2503,145.8944 C185.4142,146.2150 185.4961,146.6005 185.4961,147.0506 C185.4961,147.5555 185.3938,148.0124 185.1891,148.4218 C184.9844,148.8311 184.6945,149.1789 184.3194,149.4652 C183.9441,149.7518 183.4872,149.9734 182.9483,150.1305 C182.4094,150.2872 181.8125,150.3658 181.1577,150.3658 Z Z M186.7238,144.7997 C186.7238,144.0493 186.8533,143.3398 187.1127,142.6714 C187.3718,142.0027 187.7437,141.4162 188.2278,140.9114 C188.7123,140.4065 189.2954,140.0077 189.9777,139.7143 C190.6597,139.4209 191.4236,139.2744 192.2695,139.2744 C193.3747,139.2744 194.3260,139.5164 195.1243,140.0009 C195.9222,140.4850 196.5192,141.1296 196.9149,141.9347 L194.7251,142.6303 C194.4660,142.1802 194.1182,141.8289 193.6814,141.5764 C193.2449,141.3241 192.7607,141.1980 192.2287,141.1980 C191.7785,141.1980 191.3590,141.2867 190.9701,141.4638 C190.5812,141.6413 190.2436,141.8902 189.9570,142.2108 C189.6707,142.5314 189.4456,142.9101 189.2818,143.3466 C189.1182,143.7831 189.0363,144.2676 189.0363,144.7997 C189.0363,145.3181 189.1216,145.7989 189.2920,146.2422 C189.4626,146.6855 189.6945,147.0711 189.9879,147.3985 C190.2813,147.7259 190.6223,147.9818 191.0109,148.1658 C191.3998,148.3500 191.8125,148.4422 192.2491,148.4422 C192.5220,148.4422 192.7947,148.4048 193.0677,148.3296 C193.3404,148.2545 193.5896,148.1488 193.8146,148.0124 C194.0397,147.8761 194.2376,147.7191 194.4079,147.5416 C194.5786,147.3644 194.7047,147.1734 194.7866,146.9687 L196.9968,147.6235 C196.6419,148.4286 196.0486,149.0868 195.2164,149.5984 C194.3841,150.1101 193.4019,150.3658 192.2695,150.3658 C191.4372,150.3658 190.6801,150.2158 189.9981,149.9156 C189.3158,149.6154 188.7327,149.2095 188.2483,148.6979 C187.7641,148.1862 187.3888,147.5963 187.1229,146.9279 C186.8567,146.2592 186.7238,145.5500 186.7238,144.7997 Z Z M198.8178,150.1611 L198.8178,139.4586 L201.0688,139.4586 L201.0688,150.1611 L198.8178,150.1611 Z Z M198.8178,137.6986 L198.8178,135.2225 L201.0688,135.2225 L201.0688,137.6986 L198.8178,137.6986 Z Z M209.7865,150.3658 C208.9270,150.3658 208.1733,150.1611 207.5253,149.7518 C206.8773,149.3425 206.3554,148.8104 205.9597,148.1556 L205.9597,154.5199 L203.7087,154.5199 L203.7087,139.4586 L205.6938,139.4586 L205.6938,141.3822 C206.1031,140.7410 206.6352,140.2294 207.2900,139.8472 C207.9448,139.4654 208.6815,139.2744 209.5002,139.2744 C210.2230,139.2744 210.8917,139.4243 211.5054,139.7245 C212.1194,140.0247 212.6514,140.4272 213.1016,140.9318 C213.5520,141.4366 213.9032,142.0234 214.1555,142.6918 C214.4081,143.3602 214.5342,144.0629 214.5342,144.7997 C214.5342,145.5772 214.4183,146.3037 214.1864,146.9789 C213.9542,147.6541 213.6268,148.2409 213.2039,148.7390 C212.7810,149.2367 212.2798,149.6324 211.6998,149.9258 C211.1202,150.2192 210.4824,150.3658 209.7865,150.3658 Z Z M209.0704,148.4422 C209.5342,148.4422 209.9639,148.3398 210.3596,148.1352 C210.7551,147.9305 211.0895,147.6578 211.3622,147.3165 C211.6352,146.9755 211.8501,146.5866 212.0068,146.1501 C212.1639,145.7135 212.2421,145.2634 212.2421,144.7997 C212.2421,144.3084 212.1571,143.8447 211.9864,143.4081 C211.8158,142.9716 211.5805,142.5895 211.2803,142.2621 C210.9804,141.9347 210.6255,141.6753 210.2162,141.4845 C209.8071,141.2935 209.3703,141.1980 208.9066,141.1980 C208.6200,141.1980 208.3201,141.2524 208.0063,141.3615 C207.6925,141.4706 207.3957,141.6209 207.1159,141.8119 C206.8364,142.0027 206.5941,142.2247 206.3894,142.4769 C206.1850,142.7292 206.0416,143.0056 205.9597,143.3058 L205.9597,146.1093 C206.0963,146.4367 206.2735,146.7437 206.4917,147.0302 C206.7100,147.3165 206.9558,147.5623 207.2285,147.7670 C207.5014,147.9713 207.7948,148.1352 208.1086,148.2579 C208.4224,148.3807 208.7430,148.4422 209.0704,148.4422 Z Z M216.5394,135.2225 L218.7907,135.2225 L218.7907,147.0095 C218.7907,147.4053 218.8930,147.7157 219.0974,147.9407 C219.3021,148.1658 219.5887,148.2783 219.9572,148.2783 C220.1071,148.2783 220.2846,148.2545 220.4892,148.2069 C220.6936,148.1590 220.8847,148.0944 221.0621,148.0124 L221.3895,149.8337 C221.0621,149.9837 220.6732,150.1030 220.2231,150.1917 C219.7729,150.2804 219.3704,150.3249 219.0158,150.3249 C218.2380,150.3249 217.6311,150.1135 217.1945,149.6906 C216.7580,149.2676 216.5394,148.6672 216.5394,147.8897 L216.5394,135.2225 Z Z M222.6172,150.1611 L222.6172,139.4586 L224.8682,139.4586 L224.8682,150.1611 L222.6172,150.1611 Z Z M222.6172,137.6986 L222.6172,135.2225 L224.8682,135.2225 L224.8682,137.6986 L222.6172,137.6986 Z Z M237.1263,150.1611 L234.8751,150.1611 L234.8751,144.1653 C234.8751,143.1556 234.7115,142.4222 234.3841,141.9653 C234.0567,141.5083 233.5859,141.2799 232.9722,141.2799 C232.6445,141.2799 232.3137,141.3411 231.9795,141.4638 C231.6453,141.5869 231.3349,141.7606 231.0486,141.9857 C230.7620,142.2108 230.5060,142.4769 230.2809,142.7839 C230.0559,143.0909 229.8821,143.4285 229.7591,143.7968 L229.7591,150.1611 L227.5081,150.1611 L227.5081,139.4586 L229.5544,139.4586 L229.5544,141.6073 C229.9637,140.8842 230.5573,140.3147 231.3349,139.8986 C232.1124,139.4824 232.9722,139.2744 233.9133,139.2744 C234.5545,139.2744 235.0831,139.3903 235.4992,139.6222 C235.9154,139.8540 236.2428,140.1712 236.4814,140.5738 C236.7204,140.9763 236.8874,141.4400 236.9829,141.9653 C237.0784,142.4906 237.1263,143.0464 237.1263,143.6332 L237.1263,150.1611 Z Z M244.5545,150.3658 C243.7223,150.3658 242.9651,150.2192 242.2831,149.9258 C241.6008,149.6324 241.0177,149.2333 240.5333,148.7288 C240.0491,148.2239 239.6738,147.6371 239.4079,146.9687 C239.1418,146.3003 239.0088,145.5908 239.0088,144.8405 C239.0088,144.0901 239.1418,143.3772 239.4079,142.7020 C239.6738,142.0268 240.0491,141.4332 240.5333,140.9216 C241.0177,140.4102 241.6008,140.0077 242.2831,139.7143 C242.9651,139.4209 243.7291,139.2744 244.5749,139.2744 C245.4072,139.2744 246.1609,139.4243 246.8364,139.7245 C247.5116,140.0247 248.0879,140.4238 248.5655,140.9216 C249.0429,141.4196 249.4080,141.9993 249.6603,142.6612 C249.9126,143.3228 250.0390,144.0150 250.0390,144.7381 C250.0390,144.9020 250.0322,145.0553 250.0183,145.1985 C250.0047,145.3419 249.9911,145.4613 249.9775,145.5568 L241.4032,145.5568 C241.4441,146.0341 241.5566,146.4639 241.7409,146.8460 C241.9251,147.2278 242.1638,147.5589 242.4569,147.8384 C242.7503,148.1182 243.0845,148.3330 243.4598,148.4830 C243.8348,148.6332 244.2271,148.7081 244.6364,148.7081 C244.9366,148.7081 245.2334,148.6706 245.5265,148.5955 C245.8199,148.5207 246.0895,148.4116 246.3350,148.2681 C246.5804,148.1250 246.7987,147.9509 246.9898,147.7463 C247.1808,147.5416 247.3308,147.3165 247.4399,147.0711 L249.3635,147.6235 C248.9953,148.4286 248.3847,149.0868 247.5320,149.5984 C246.6794,150.1101 245.6870,150.3658 244.5545,150.3658 Z Z M247.8084,144.0014 C247.7673,143.5513 247.6548,143.1351 247.4708,142.7530 C247.2866,142.3712 247.0513,142.0472 246.7647,141.7810 C246.4781,141.5151 246.1439,141.3071 245.7621,141.1571 C245.3800,141.0069 244.9774,140.9318 244.5545,140.9318 C244.1316,140.9318 243.7325,141.0069 243.3574,141.1571 C242.9821,141.3071 242.6513,141.5151 242.3650,141.7810 C242.0785,142.0472 241.8466,142.3712 241.6691,142.7530 C241.4917,143.1351 241.3826,143.5513 241.3417,144.0014 L247.8084,144.0014 Z Z M268.5994,146.4163 C268.5994,147.0027 268.4801,147.5280 268.2414,147.9920 C268.0027,148.4558 267.6821,148.8481 267.2796,149.1687 C266.8771,149.4893 266.4031,149.7348 265.8574,149.9054 C265.3118,150.0758 264.7318,150.1611 264.1178,150.1611 L257.1806,150.1611 L257.1806,135.6318 L264.6706,135.6318 C265.1751,135.6318 265.6324,135.7410 266.0414,135.9592 C266.4507,136.1775 266.7988,136.4604 267.0851,136.8085 C267.3717,137.1563 267.5934,137.5520 267.7504,137.9954 C267.9072,138.4387 267.9857,138.8854 267.9857,139.3356 C267.9857,140.0451 267.8049,140.7101 267.4434,141.3309 C267.0817,141.9517 266.5667,142.4120 265.8983,142.7122 C266.7305,142.9577 267.3887,143.4047 267.8732,144.0527 C268.3573,144.7007 268.5994,145.4885 268.5994,146.4163 Z Z M266.2461,145.9865 C266.2461,145.6863 266.1951,145.3997 266.0927,145.1271 C265.9904,144.8541 265.8540,144.6154 265.6834,144.4107 C265.5130,144.2061 265.3050,144.0425 265.0592,143.9195 C264.8137,143.7968 264.5476,143.7355 264.2613,143.7355 L259.4727,143.7355 L259.4727,148.1760 L264.1178,148.1760 C264.4180,148.1760 264.6978,148.1182 264.9569,148.0022 C265.2163,147.8863 265.4413,147.7293 265.6324,147.5314 C265.8231,147.3335 265.9734,147.1017 266.0825,146.8358 C266.1917,146.5696 266.2461,146.2867 266.2461,145.9865 Z Z M259.4727,137.6167 L259.4727,141.8936 L263.6881,141.8936 C263.9747,141.8936 264.2374,141.8391 264.4761,141.7300 C264.7148,141.6209 264.9263,141.4740 265.1105,141.2901 C265.2945,141.1058 265.4379,140.8842 265.5403,140.6251 C265.6426,140.3657 265.6936,140.0791 265.6936,139.7653 C265.6936,139.1380 265.5164,138.6230 265.1615,138.2204 C264.8069,137.8179 264.3568,137.6167 263.8111,137.6167 L259.4727,137.6167 Z Z M273.9200,150.3658 C272.8151,150.3658 271.9760,150.0007 271.4031,149.2710 C270.8300,148.5411 270.5437,147.4532 270.5437,146.0069 L270.5437,139.4586 L272.7947,139.4586 L272.7947,145.5568 C272.7947,147.4804 273.4699,148.4422 274.8206,148.4422 C275.4754,148.4422 276.0894,148.2443 276.6623,147.8486 C277.2351,147.4532 277.6785,146.8800 277.9923,146.1297 L277.9923,139.4586 L280.2436,139.4586 L280.2436,147.5008 C280.2436,147.7599 280.2912,147.9441 280.3867,148.0533 C280.4822,148.1624 280.6526,148.2239 280.8984,148.2375 L280.8984,150.1611 C280.6526,150.2019 280.4411,150.2294 280.2640,150.2430 C280.0865,150.2566 279.9298,150.2634 279.7931,150.2634 C278.9473,150.1951 278.4699,149.8065 278.3608,149.0970 L278.3197,147.9920 C277.8423,148.7696 277.2215,149.3595 276.4576,149.7620 C275.6937,150.1645 274.8478,150.3658 273.9200,150.3658 Z Z M283.1494,150.1611 L283.1494,139.4586 L285.4003,139.4586 L285.4003,150.1611 L283.1494,150.1611 Z Z M283.1494,137.6986 L283.1494,135.2225 L285.4003,135.2225 L285.4003,137.6986 L283.1494,137.6986 Z Z M288.0607,135.2225 L290.3119,135.2225 L290.3119,147.0095 C290.3119,147.4053 290.4143,147.7157 290.6186,147.9407 C290.8233,148.1658 291.1099,148.2783 291.4784,148.2783 C291.6283,148.2783 291.8058,148.2545 292.0105,148.2069 C292.2148,148.1590 292.4059,148.0944 292.5833,148.0124 L292.9107,149.8337 C292.5833,149.9837 292.1944,150.1030 291.7443,150.1917 C291.2941,150.2804 290.8916,150.3249 290.5370,150.3249 C289.7592,150.3249 289.1523,150.1135 288.7157,149.6906 C288.2792,149.2676 288.0607,148.6672 288.0607,147.8897 L288.0607,135.2225 Z Z M299.9095,149.6086 C299.6093,149.7450 299.2102,149.8986 298.7121,150.0690 C298.2144,150.2396 297.6721,150.3249 297.0853,150.3249 C296.7307,150.3249 296.3999,150.2770 296.0929,150.1815 C295.7859,150.0860 295.5129,149.9428 295.2743,149.7518 C295.0356,149.5607 294.8479,149.3118 294.7116,149.0049 C294.5750,148.6979 294.5069,148.3262 294.5069,147.8897 L294.5069,141.1980 L293.0743,141.1980 L293.0743,139.4586 L294.5069,139.4586 L294.5069,135.9388 L296.7579,135.9388 L296.7579,139.4586 L299.0908,139.4586 L299.0908,141.1980 L296.7579,141.1980 L296.7579,147.1734 C296.7579,147.5555 296.8671,147.8316 297.0853,148.0022 C297.3036,148.1726 297.5698,148.2579 297.8836,148.2579 C298.1971,148.2579 298.4973,148.2035 298.7838,148.0944 C299.0704,147.9852 299.2819,147.8965 299.4182,147.8282 L299.9095,149.6086 Z Z M306.7033,150.1611 L306.7033,135.6523 L308.9954,135.6523 L308.9954,150.1611 L306.7033,150.1611 Z Z M321.5602,150.1611 L319.3089,150.1611 L319.3089,144.1653 C319.3089,143.1556 319.1454,142.4222 318.8180,141.9653 C318.4906,141.5083 318.0197,141.2799 317.4060,141.2799 C317.0784,141.2799 316.7476,141.3411 316.4134,141.4638 C316.0791,141.5869 315.7688,141.7606 315.4825,141.9857 C315.1959,142.2108 314.9399,142.4769 314.7148,142.7839 C314.4898,143.0909 314.3160,143.4285 314.1930,143.7968 L314.1930,150.1611 L311.9420,150.1611 L311.9420,139.4586 L313.9883,139.4586 L313.9883,141.6073 C314.3976,140.8842 314.9912,140.3147 315.7688,139.8986 C316.5463,139.4824 317.4060,139.2744 318.3471,139.2744 C318.9883,139.2744 319.5170,139.3903 319.9331,139.6222 C320.3493,139.8540 320.6767,140.1712 320.9153,140.5738 C321.1543,140.9763 321.3213,141.4400 321.4168,141.9653 C321.5123,142.4906 321.5602,143.0464 321.5602,143.6332 L321.5602,150.1611 Z Z M330.0528,149.6086 C329.7526,149.7450 329.3535,149.8986 328.8555,150.0690 C328.3577,150.2396 327.8154,150.3249 327.2287,150.3249 C326.8740,150.3249 326.5432,150.2770 326.2363,150.1815 C325.9293,150.0860 325.6563,149.9428 325.4176,149.7518 C325.1789,149.5607 324.9913,149.3118 324.8549,149.0049 C324.7183,148.6979 324.6503,148.3262 324.6503,147.8897 L324.6503,141.1980 L323.2176,141.1980 L323.2176,139.4586 L324.6503,139.4586 L324.6503,135.9388 L326.9013,135.9388 L326.9013,139.4586 L329.2342,139.4586 L329.2342,141.1980 L326.9013,141.1980 L326.9013,147.1734 C326.9013,147.5555 327.0104,147.8316 327.2287,148.0022 C327.4469,148.1726 327.7131,148.2579 328.0269,148.2579 C328.3404,148.2579 328.6406,148.2035 328.9272,148.0944 C329.2138,147.9852 329.4252,147.8965 329.5616,147.8282 L330.0528,149.6086 Z Z M336.1714,150.3658 C335.3255,150.3658 334.5650,150.2158 333.8895,149.9156 C333.2143,149.6154 332.6380,149.2129 332.1604,148.7081 C331.6830,148.2035 331.3145,147.6133 331.0554,146.9381 C330.7961,146.2626 330.6665,145.5568 330.6665,144.8201 C330.6665,144.0833 330.7961,143.3772 331.0554,142.7020 C331.3145,142.0268 331.6864,141.4366 332.1706,140.9318 C332.6550,140.4272 333.2347,140.0247 333.9102,139.7245 C334.5854,139.4243 335.3391,139.2744 336.1714,139.2744 C337.0037,139.2744 337.7574,139.4243 338.4326,139.7245 C339.1078,140.0247 339.6878,140.4272 340.1719,140.9318 C340.6564,141.4366 341.0280,142.0268 341.2874,142.7020 C341.5465,143.3772 341.6760,144.0833 341.6760,144.8201 C341.6760,145.5568 341.5465,146.2626 341.2874,146.9381 C341.0280,147.6133 340.6564,148.2035 340.1719,148.7081 C339.6878,149.2129 339.1078,149.6154 338.4326,149.9156 C337.7574,150.2158 337.0037,150.3658 336.1714,150.3658 Z Z M332.9790,144.8405 C332.9790,145.3589 333.0609,145.8363 333.2245,146.2731 C333.3883,146.7096 333.6134,147.0881 333.8997,147.4087 C334.1863,147.7293 334.5239,147.9818 334.9128,148.1658 C335.3017,148.3500 335.7213,148.4422 336.1714,148.4422 C336.6215,148.4422 337.0411,148.3500 337.4300,148.1658 C337.8186,147.9818 338.1562,147.7259 338.4428,147.3985 C338.7294,147.0711 338.9545,146.6889 339.1180,146.2524 C339.2819,145.8159 339.3638,145.3385 339.3638,144.8201 C339.3638,144.3152 339.2819,143.8413 339.1180,143.3979 C338.9545,142.9543 338.7294,142.5691 338.4428,142.2417 C338.1562,141.9143 337.8186,141.6583 337.4300,141.4740 C337.0411,141.2901 336.6215,141.1980 336.1714,141.1980 C335.7349,141.1980 335.3221,141.2935 334.9332,141.4845 C334.5446,141.6753 334.2067,141.9347 333.9204,142.2621 C333.6338,142.5895 333.4054,142.9750 333.2347,143.4183 C333.0643,143.8617 332.9790,144.3356 332.9790,144.8405 Z Z M358.9271,148.1352 L358.9271,150.1611 L348.9610,150.1611 L348.9610,135.6318 L358.7428,135.6318 L358.7428,137.6578 L351.2531,137.6578 L351.2531,141.7912 L357.7402,141.7912 L357.7402,143.6944 L351.2531,143.6944 L351.2531,148.1352 L358.9271,148.1352 Z Z M362.2422,139.4586 L364.8617,143.1215 L365.0460,143.4694 L365.2299,143.1215 L367.8494,139.4586 L370.1823,139.4586 L366.2736,144.8201 L370.2231,150.1611 L367.8698,150.1611 L365.2299,146.5186 L365.0460,146.1912 L364.8821,146.5186 L362.2218,150.1611 L359.8685,150.1611 L363.8180,144.8201 L359.9096,139.4586 L362.2422,139.4586 Z Z M376.5464,150.3658 C375.7141,150.3658 374.9570,150.2192 374.2750,149.9258 C373.5927,149.6324 373.0096,149.2333 372.5252,148.7288 C372.0410,148.2239 371.6657,147.6371 371.3998,146.9687 C371.1336,146.3003 371.0007,145.5908 371.0007,144.8405 C371.0007,144.0901 371.1336,143.3772 371.3998,142.7020 C371.6657,142.0268 372.0410,141.4332 372.5252,140.9216 C373.0096,140.4102 373.5927,140.0077 374.2750,139.7143 C374.9570,139.4209 375.7209,139.2744 376.5668,139.2744 C377.3991,139.2744 378.1528,139.4243 378.8283,139.7245 C379.5035,140.0247 380.0798,140.4238 380.5574,140.9216 C381.0348,141.4196 381.3999,141.9993 381.6522,142.6612 C381.9044,143.3228 382.0309,144.0150 382.0309,144.7381 C382.0309,144.9020 382.0241,145.0553 382.0102,145.1985 C381.9966,145.3419 381.9830,145.4613 381.9694,145.5568 L373.3951,145.5568 C373.4359,146.0341 373.5485,146.4639 373.7327,146.8460 C373.9170,147.2278 374.1557,147.5589 374.4488,147.8384 C374.7421,148.1182 375.0763,148.3330 375.4517,148.4830 C375.8267,148.6332 376.2190,148.7081 376.6283,148.7081 C376.9285,148.7081 377.2253,148.6706 377.5184,148.5955 C377.8118,148.5207 378.0814,148.4116 378.3268,148.2681 C378.5723,148.1250 378.7906,147.9509 378.9816,147.7463 C379.1727,147.5416 379.3226,147.3165 379.4318,147.0711 L381.3554,147.6235 C380.9871,148.4286 380.3766,149.0868 379.5239,149.5984 C378.6712,150.1101 377.6788,150.3658 376.5464,150.3658 Z Z M379.8003,144.0014 C379.7592,143.5513 379.6466,143.1351 379.4627,142.7530 C379.2784,142.3712 379.0431,142.0472 378.7566,141.7810 C378.4700,141.5151 378.1358,141.3071 377.7540,141.1571 C377.3718,141.0069 376.9693,140.9318 376.5464,140.9318 C376.1235,140.9318 375.7243,141.0069 375.3493,141.1571 C374.9740,141.3071 374.6432,141.5151 374.3569,141.7810 C374.0703,142.0472 373.8385,142.3712 373.6610,142.7530 C373.4836,143.1351 373.3744,143.5513 373.3336,144.0014 L379.8003,144.0014 Z Z M383.1766,144.7997 C383.1766,144.0493 383.3062,143.3398 383.5655,142.6714 C383.8246,142.0027 384.1965,141.4162 384.6807,140.9114 C385.1651,140.4065 385.7482,140.0077 386.4305,139.7143 C387.1125,139.4209 387.8765,139.2744 388.7223,139.2744 C389.8276,139.2744 390.7789,139.5164 391.5771,140.0009 C392.3751,140.4850 392.9720,141.1296 393.3677,141.9347 L391.1780,142.6303 C390.9189,142.1802 390.5711,141.8289 390.1343,141.5764 C389.6977,141.3241 389.2136,141.1980 388.6815,141.1980 C388.2314,141.1980 387.8118,141.2867 387.4229,141.4638 C387.0340,141.6413 386.6964,141.8902 386.4098,142.2108 C386.1235,142.5314 385.8985,142.9101 385.7346,143.3466 C385.5711,143.7831 385.4891,144.2676 385.4891,144.7997 C385.4891,145.3181 385.5745,145.7989 385.7448,146.2422 C385.9155,146.6855 386.1473,147.0711 386.4407,147.3985 C386.7341,147.7259 387.0751,147.9818 387.4637,148.1658 C387.8527,148.3500 388.2654,148.4422 388.7019,148.4422 C388.9749,148.4422 389.2476,148.4048 389.5206,148.3296 C389.7933,148.2545 390.0424,148.1488 390.2675,148.0124 C390.4926,147.8761 390.6904,147.7191 390.8608,147.5416 C391.0314,147.3644 391.1576,147.1734 391.2395,146.9687 L393.4497,147.6235 C393.0948,148.4286 392.5015,149.0868 391.6692,149.5984 C390.8370,150.1101 389.8548,150.3658 388.7223,150.3658 C387.8901,150.3658 387.1329,150.2158 386.4509,149.9156 C385.7686,149.6154 385.1855,149.2095 384.7011,148.6979 C384.2169,148.1862 383.8416,147.5963 383.5757,146.9279 C383.3096,146.2592 383.1766,145.5500 383.1766,144.7997 Z Z M398.5654,150.3658 C397.4604,150.3658 396.6214,150.0007 396.0485,149.2710 C395.4753,148.5411 395.1890,147.4532 395.1890,146.0069 L395.1890,139.4586 L397.4400,139.4586 L397.4400,145.5568 C397.4400,147.4804 398.1152,148.4422 399.4659,148.4422 C400.1207,148.4422 400.7347,148.2443 401.3076,147.8486 C401.8805,147.4532 402.3238,146.8800 402.6376,146.1297 L402.6376,139.4586 L404.8889,139.4586 L404.8889,147.5008 C404.8889,147.7599 404.9365,147.9441 405.0320,148.0533 C405.1276,148.1624 405.2979,148.2239 405.5437,148.2375 L405.5437,150.1611 C405.2979,150.2019 405.0865,150.2294 404.9093,150.2430 C404.7318,150.2566 404.5751,150.2634 404.4385,150.2634 C403.5926,150.1951 403.1152,149.8065 403.0061,149.0970 L402.9650,147.9920 C402.4877,148.7696 401.8669,149.3595 401.1029,149.7620 C400.3390,150.1645 399.4931,150.3658 398.5654,150.3658 Z Z M413.7293,149.6086 C413.4291,149.7450 413.0300,149.8986 412.5319,150.0690 C412.0342,150.2396 411.4919,150.3249 410.9051,150.3249 C410.5505,150.3249 410.2197,150.2770 409.9127,150.1815 C409.6057,150.0860 409.3328,149.9428 409.0941,149.7518 C408.8554,149.5607 408.6677,149.3118 408.5314,149.0049 C408.3948,148.6979 408.3267,148.3262 408.3267,147.8897 L408.3267,141.1980 L406.8941,141.1980 L406.8941,139.4586 L408.3267,139.4586 L408.3267,135.9388 L410.5777,135.9388 L410.5777,139.4586 L412.9106,139.4586 L412.9106,141.1980 L410.5777,141.1980 L410.5777,147.1734 C410.5777,147.5555 410.6869,147.8316 410.9051,148.0022 C411.1234,148.1726 411.3896,148.2579 411.7034,148.2579 C412.0169,148.2579 412.3171,148.2035 412.6037,148.0944 C412.8902,147.9852 413.1017,147.8965 413.2380,147.8282 L413.7293,149.6086 Z Z M415.1820,150.1611 L415.1820,139.4586 L417.4330,139.4586 L417.4330,150.1611 L415.1820,150.1611 Z Z M415.1820,137.6986 L415.1820,135.2225 L417.4330,135.2225 L417.4330,137.6986 L415.1820,137.6986 Z Z M424.9230,150.3658 C424.0772,150.3658 423.3166,150.2158 422.6411,149.9156 C421.9659,149.6154 421.3896,149.2129 420.9120,148.7081 C420.4346,148.2035 420.0661,147.6133 419.8071,146.9381 C419.5477,146.2626 419.4181,145.5568 419.4181,144.8201 C419.4181,144.0833 419.5477,143.3772 419.8071,142.7020 C420.0661,142.0268 420.4380,141.4366 420.9222,140.9318 C421.4066,140.4272 421.9863,140.0247 422.6618,139.7245 C423.3370,139.4243 424.0908,139.2744 424.9230,139.2744 C425.7553,139.2744 426.5090,139.4243 427.1842,139.7245 C427.8594,140.0247 428.4394,140.4272 428.9236,140.9318 C429.4080,141.4366 429.7796,142.0268 430.0390,142.7020 C430.2981,143.3772 430.4276,144.0833 430.4276,144.8201 C430.4276,145.5568 430.2981,146.2626 430.0390,146.9381 C429.7796,147.6133 429.4080,148.2035 428.9236,148.7081 C428.4394,149.2129 427.8594,149.6154 427.1842,149.9156 C426.5090,150.2158 425.7553,150.3658 424.9230,150.3658 Z Z M421.7306,144.8405 C421.7306,145.3589 421.8126,145.8363 421.9761,146.2731 C422.1400,146.7096 422.3650,147.0881 422.6513,147.4087 C422.9379,147.7293 423.2755,147.9818 423.6644,148.1658 C424.0534,148.3500 424.4729,148.4422 424.9230,148.4422 C425.3732,148.4422 425.7927,148.3500 426.1816,148.1658 C426.5702,147.9818 426.9078,147.7259 427.1944,147.3985 C427.4810,147.0711 427.7061,146.6889 427.8696,146.2524 C428.0335,145.8159 428.1154,145.3385 428.1154,144.8201 C428.1154,144.3152 428.0335,143.8413 427.8696,143.3979 C427.7061,142.9543 427.4810,142.5691 427.1944,142.2417 C426.9078,141.9143 426.5702,141.6583 426.1816,141.4740 C425.7927,141.2901 425.3732,141.1980 424.9230,141.1980 C424.4865,141.1980 424.0738,141.2935 423.6849,141.4845 C423.2962,141.6753 422.9583,141.9347 422.6720,142.2621 C422.3854,142.5895 422.1570,142.9750 421.9863,143.4183 C421.8160,143.8617 421.7306,144.3356 421.7306,144.8405 Z Z M441.9899,150.1611 L439.7386,150.1611 L439.7386,144.1653 C439.7386,143.1556 439.5750,142.4222 439.2476,141.9653 C438.9202,141.5083 438.4494,141.2799 437.8357,141.2799 C437.5080,141.2799 437.1772,141.3411 436.8430,141.4638 C436.5088,141.5869 436.1984,141.7606 435.9121,141.9857 C435.6255,142.2108 435.3695,142.4769 435.1445,142.7839 C434.9194,143.0909 434.7456,143.4285 434.6226,143.7968 L434.6226,150.1611 L432.3716,150.1611 L432.3716,139.4586 L434.4180,139.4586 L434.4180,141.6073 C434.8273,140.8842 435.4209,140.3147 436.1984,139.8986 C436.9759,139.4824 437.8357,139.2744 438.7768,139.2744 C439.4180,139.2744 439.9466,139.3903 440.3628,139.6222 C440.7789,139.8540 441.1063,140.1712 441.3450,140.5738 C441.5839,140.9763 441.7509,141.4400 441.8464,141.9653 C441.9420,142.4906 441.9899,143.0464 441.9899,143.6332 L441.9899,150.1611 Z"
     style="fill-rule: evenodd; fill: #1b1918; "
     id="path16" />
  <g
     id="Layer1001">
    <defs
       id="defs17">
      <linearGradient
         id="grad5">
        <stop
           offset="0%"
           stop-color="#56c6e3"
           stop-opacity="1.0000"
           id="stop16" />
        <stop
           offset="100%"
           stop-color="#00a6d0"
           stop-opacity="1.0000"
           id="stop17" />
      </linearGradient>
      <linearGradient
         xlink:href="#grad5"
         id="grad6"
         x1="0"
         y1="0"
         x2="0"
         y2="1"
         gradientTransform="rotate(39 .5 .5)"
         gradientUnits="objectBoundingBox" />
    </defs>
    <path
       d="  M98.6826,49.4916 L80.9512,73.1397 L110.5886,73.1397 L98.6826,49.4916 Z"
       style="fill: url(#grad6); "
       id="path17" />
    <defs
       id="defs19">
      <linearGradient
         id="grad7">
        <stop
           offset="0%"
           stop-color="#56c6e3"
           stop-opacity="1.0000"
           id="stop18" />
        <stop
           offset="100%"
           stop-color="#00a6d0"
           stop-opacity="1.0000"
           id="stop19" />
      </linearGradient>
      <linearGradient
         xlink:href="#grad7"
         id="grad8"
         x1="0"
         y1="0"
         x2="0"
         y2="1"
         gradientTransform="rotate(330 .5 .5)"
         gradientUnits="objectBoundingBox" />
    </defs>
    <path
       d="  M133.4723,48.3091 L101.2355,48.3091 L113.1880,72.1115 L133.4723,48.3091 Z"
       style="fill: url(#grad8); "
       id="path19" />
    <path
       d="  M114.7662,75.2574 L136.6518,137.3884 L158.5376,75.2574 L114.7662,75.2574 Z"
       style="fill-rule: evenodd; fill: #5f599f; "
       id="path20" />
    <defs
       id="defs21">
      <linearGradient
         id="grad9">
        <stop
           offset="0%"
           stop-color="#0087b8"
           stop-opacity="1.0000"
           id="stop20" />
        <stop
           offset="100%"
           stop-color="#002f68"
           stop-opacity="1.0000"
           id="stop21" />
      </linearGradient>
      <linearGradient
         xlink:href="#grad9"
         id="grad10"
         x1="0"
         y1="0"
         x2="0"
         y2="1"
         gradientTransform="rotate(38 .5 .5)"
         gradientUnits="objectBoundingBox" />
    </defs>
    <path
       d="  M81.3689,75.2574 L133.0313,135.2516 L111.8883,75.2574 L81.3689,75.2574 Z"
       style="fill: url(#grad10); "
       id="path21" />
    <defs
       id="defs23">
      <linearGradient
         id="grad11">
        <stop
           offset="0%"
           stop-color="#56c6e3"
           stop-opacity="1.0000"
           id="stop22" />
        <stop
           offset="100%"
           stop-color="#00a6d0"
           stop-opacity="1.0000"
           id="stop23" />
      </linearGradient>
      <linearGradient
         xlink:href="#grad11"
         id="grad12"
         x1="0"
         y1="0"
         x2="0"
         y2="1"
         gradientTransform="rotate(39 .5 .5)"
         gradientUnits="objectBoundingBox" />
    </defs>
    <path
       d="  M172.0681,48.3091 L139.8314,48.3091 L160.1158,72.1115 L172.0681,48.3091 Z"
       style="fill: url(#grad12); "
       id="path23" />
    <defs
       id="defs25">
      <linearGradient
         id="grad13">
        <stop
           offset="0%"
           stop-color="#56c6e3"
           stop-opacity="1.0000"
           id="stop24" />
        <stop
           offset="100%"
           stop-color="#00a6d0"
           stop-opacity="1.0000"
           id="stop25" />
      </linearGradient>
      <linearGradient
         xlink:href="#grad13"
         id="grad14"
         x1="0"
         y1="0"
         x2="0"
         y2="1"
         gradientTransform="rotate(330 .5 .5)"
         gradientUnits="objectBoundingBox" />
    </defs>
    <path
       d="  M192.3525,73.1397 L174.6211,49.4916 L162.7151,73.1397 L192.3525,73.1397 Z"
       style="fill: url(#grad14); "
       id="path25" />
    <defs
       id="defs27">
      <linearGradient
         id="grad15">
        <stop
           offset="0%"
           stop-color="#0087b8"
           stop-opacity="1.0000"
           id="stop26" />
        <stop
           offset="100%"
           stop-color="#002f68"
           stop-opacity="1.0000"
           id="stop27" />
      </linearGradient>
      <linearGradient
         xlink:href="#grad15"
         id="grad16"
         x1="0"
         y1="0"
         x2="0"
         y2="1"
         gradientTransform="rotate(336 .5 .5)"
         gradientUnits="objectBoundingBox" />
    </defs>
    <path
       d="  M140.2724,135.2516 L191.9347,75.2574 L161.4154,75.2574 L140.2724,135.2516 Z"
       style="fill: url(#grad16); "
       id="path27" />
    <path
       d="  M81.3688,75.2573 L116.7369,89.0158 L111.8883,75.2573 L81.3688,75.2573 Z"
       style="fill-rule: evenodd; fill: #0095c7; "
       id="path28" />
    <path
       d="  M191.9347,75.2573 L156.5666,89.0158 L161.4152,75.2573 L191.9347,75.2573 Z"
       style="fill-rule: evenodd; fill: #0095c7; "
       id="path29" />
    <path
       d="  M114.7660,75.2573 L136.6517,84.6306"
       style="stroke-width: 0.5000; stroke: #1b1918; stroke-dasharray: none; stroke-linecap: butt; stroke-linejoin: miter; fill: none; "
       id="path30" />
    <path
       d="  M158.5375,75.2573 L136.6517,84.6306"
       style="stroke-width: 0.5000; stroke: #1b1918; stroke-dasharray: none; stroke-linecap: butt; stroke-linejoin: miter; fill: none; "
       id="path31" />
    <path
       d="  M136.6517,137.3885 L136.6517,84.6306 L114.7660,75.2573 L136.6517,137.3885 Z"
       style="fill-rule: evenodd; fill: #00a6d0; "
       id="path32" />
    <defs
       id="defs33">
      <linearGradient
         id="grad17">
        <stop
           offset="0%"
           stop-color="#00a6d0"
           stop-opacity="1.0000"
           id="stop32" />
        <stop
           offset="100%"
           stop-color="#00467c"
           stop-opacity="1.0000"
           id="stop33" />
      </linearGradient>
      <linearGradient
         xlink:href="#grad17"
         id="grad18"
         x1="0"
         y1="0"
         x2="0"
         y2="1"
         gradientTransform="rotate(348 .5 .5)"
         gradientUnits="objectBoundingBox" />
    </defs>
    <path
       d="  M136.6517,84.6306 L136.6517,137.3885 L158.5375,75.2573 L136.6517,84.6306 Z"
       style="fill: url(#grad18); "
       id="path33" />
    <path
       d="  M136.6517,84.6306 L158.5375,75.2573 L136.6517,75.2573 L136.6517,84.6306 Z"
       style="fill-rule: evenodd; fill: #36bfe0; "
       id="path34" />
    <path
       d="  M136.6517,84.6306 L136.6517,75.2573 L114.7660,75.2573 L136.6517,84.6306 Z"
       style="fill-rule: evenodd; fill: #56c6e3; "
       id="path35" />
    <defs
       id="defs36">
      <linearGradient
         id="grad19">
        <stop
           offset="0%"
           stop-color="#afdfef"
           stop-opacity="1.0000"
           id="stop35" />
        <stop
           offset="100%"
           stop-color="#0095c7"
           stop-opacity="1.0000"
           id="stop36" />
      </linearGradient>
      <linearGradient
         xlink:href="#grad19"
         id="grad20"
         x1="0"
         y1="0"
         x2="0"
         y2="1"
         gradientTransform="rotate(61 .5 .5)"
         gradientUnits="objectBoundingBox" />
    </defs>
    <path
       d="  M116.0657,73.1398 L136.6517,73.1398 L136.6517,49.0031 L116.0657,73.1398 Z"
       style="fill: url(#grad20); "
       id="path36" />
    <defs
       id="defs38">
      <linearGradient
         id="grad21">
        <stop
           offset="0%"
           stop-color="#8ac9dc"
           stop-opacity="1.0000"
           id="stop37" />
        <stop
           offset="100%"
           stop-color="#0095c7"
           stop-opacity="1.0000"
           id="stop38" />
      </linearGradient>
      <linearGradient
         xlink:href="#grad21"
         id="grad22"
         x1="0"
         y1="0"
         x2="0"
         y2="1"
         gradientTransform="rotate(53 .5 .5)"
         gradientUnits="objectBoundingBox" />
    </defs>
    <path
       d="  M157.2378,73.1398 L136.6517,73.1398 L136.6517,49.0031 L157.2378,73.1398 Z"
       style="fill: url(#grad22); "
       id="path38" />
  </g>
</svg>
