<?xml version="1.0" encoding="UTF-8"?>
<!DOCTYPE svg PUBLIC "-//W3C//DTD SVG 1.1//EN" "http://www.w3.org/Graphics/SVG/1.1/DTD/svg11.dtd">
<!-- Creator: CorelDRAW (Evaluation Version) -->
<svg xmlns="http://www.w3.org/2000/svg" xml:space="preserve" width="19in" height="13in" version="1.1" style="shape-rendering:geometricPrecision; text-rendering:geometricPrecision; image-rendering:optimizeQuality; fill-rule:evenodd; clip-rule:evenodd"
viewBox="0 0 19000 13000"
 xmlns:xlink="http://www.w3.org/1999/xlink"
 xmlns:xodm="http://www.corel.com/coreldraw/odm/2003">
 <defs>
  <style type="text/css">
   <![CDATA[
    .str0 {stroke:#032847;stroke-width:27.78;stroke-miterlimit:2.61313}
    .fil2 {fill:none}
    .fil1 {fill:#032847}
    .fil0 {fill:#F96509}
   ]]>
  </style>
 </defs>
 <g id="Layer_x0020_1">
  <metadata id="CorelCorpID_0Corel-Layer"/>
  <g id="_361140360">
   <g>
    <path class="fil0" d="M5609.33 5950.99l80.02 -83.28 2683.25 0c107.59,46.55 201.86,71.5 254.72,83.28l-3017.99 0zm5226.95 -83.28l2510.39 0 79.8 83.28 -2589.94 0 -0.24 -83.28zm-5043.91 -107.21l80.02 -83.28 2190.75 0c35.66,30.85 72.7,58.52 110.11,83.28l-2380.88 0zm5043.35 -83.28l2328.43 0 79.8 83.28 -2407.98 0 -0.24 -83.28zm-4860.31 -107.21l80.02 -83.28 1840.26 0c19.18,29.46 39.78,57.22 61.58,83.28l-1981.86 0zm3839.16 -83.28l71 0 0 51.53c-21.52,-20.13 -45.93,-37.17 -71,-51.53zm1020.59 0l2146.48 0 79.79 83.28 -2226.02 0 -0.24 -83.28zm-4676.71 -107.2l80.02 -83.28 1565.17 0c9.7,28.99 20.8,56.7 33,83.28l-1678.19 0zm3025.48 -83.28l701.64 0 0 83.28 -425.1 0c-106.65,-27.28 -198.11,-55.33 -276.54,-83.28zm1650.67 0l1964.52 0 79.8 83.28 -2044.07 0 -0.24 -83.28zm-4493.11 -107.21l80.02 -83.28 1341.18 0c3.1,28.67 7.33,56.42 12.65,83.28l-1433.85 0zm2469.46 -83.28l1070.15 0 0.02 1.54 952.04 -1.52 0 -0.02 1783.44 0 79.79 83.28 -1862.12 0 -0.02 -5.14 -948.7 2.46 0 2.68 -947.26 0c-54.64,-29.81 -96.05,-58.01 -127.36,-83.28zm-2286.43 -107.21l80.02 -83.28 1154.77 0c-1.87,28.5 -2.75,56.27 -2.61,83.28l-1232.19 0zm2169.15 -83.28l1169.35 0c5.43,26.15 9.61,53.87 12.59,83.28l-1157.35 0c-2.24,-5.26 -2.9,-8.09 -2.9,-8.09 -10.53,-26.45 -17.54,-51.47 -21.68,-75.19zm2138.78 0l1601.64 0 79.79 83.28 -1678.11 0c-0.3,-28.56 -1.43,-56.31 -3.32,-83.28zm-4124.89 -107.21l80.02 -83.28 1003.15 0c-7.27,27.3 -13.57,55.06 -18.88,83.28l-1064.29 0zm2021.47 -83.28l1054.89 0c18,25.25 33.42,52.89 46.31,83.28l-1135.24 0c6.71,-30.94 18.74,-58.64 34.04,-83.28zm2075.53 0l1447.02 0 79.8 83.28 -1510.88 0c-4.44,-28.69 -9.8,-56.42 -15.93,-83.28zm-3913.96 -107.21l80.02 -83.28 889.34 0c-12.66,27.2 -24.37,54.95 -34.98,83.28l-934.38 0zm2124.06 -83.28l482.33 0c68.04,22.85 126.41,49.94 175.62,83.28l-837.43 0c57.38,-39.41 109.8,-57.03 109.8,-57.03 24.39,-9.7 47.54,-18.45 69.69,-26.25zm1728.48 0l1325.92 0 79.79 83.28 -1374.31 0c-9.6,-28.81 -20.13,-56.53 -31.41,-83.28zm-3669.51 -107.2l80.02 -83.28 817.27 0c-19.16,27.02 -37.28,54.78 -54.25,83.28l-843.04 0zm3568.9 -83.28l1244.02 0 79.8 83.28 -1274.82 0c-15.65,-28.88 -32.07,-56.58 -49,-83.28zm-3385.86 -107.21l80.02 -83.28 798.59 0c-27.68,26.71 -54.23,54.48 -79.53,83.28l-799.09 0zm3238.98 -83.28l1208.38 0 79.8 83.28 -1216.34 0c-22.75,-28.91 -46.72,-56.69 -71.83,-83.28zm-3055.94 -107.21l80.02 -83.28 858.22 0c-40.8,26.04 -80.36,53.82 -118.46,83.28l-819.78 0zm2829.35 -83.28l1252.45 0 79.79 83.28 -1220.27 0c-35.82,-29.63 -73.23,-57.38 -111.98,-83.28zm-2646.31 -107.21l80.02 -83.28 1082.24 0c-72.11,23.22 -143.06,51.03 -211.9,83.28l-950.37 0zm2244.8 -83.28l1471.45 0 79.8 83.28 -1339.03 0c-68.47,-32.56 -139.54,-60.29 -212.21,-83.28zm-2061.76 -107.21l80.02 -83.28 3270.68 0 79.79 83.28 -3430.49 0zm183.04 -190.48l80.02 -83.28 2905.13 0 79.79 83.28 -3064.94 0zm183.04 -190.49l80.02 -83.28 2539.57 0 79.8 83.28 -2699.39 0zm183.04 -190.49l80.02 -83.28 2174.02 0 79.79 83.28 -2333.84 0zm183.04 -190.49l80.02 -83.28 1808.47 0 79.8 83.28 -1968.28 0zm183.04 -190.49l80.02 -83.28 1442.91 0 79.8 83.28 -1602.73 0zm183.04 -190.48l80.02 -83.28 1077.37 0 79.79 83.28 -1237.18 0zm183.04 -190.49l80.02 -83.28 711.81 0 79.8 83.28 -871.63 0zm183.04 -190.49l80.02 -83.28 346.26 0 79.79 83.28 -506.07 0z"/>
    <path class="fil1" d="M13463.69 6065.9l-1009.25 1090.02 -1614.36 2.05 -3.21 -1092.07 2626.82 0zm-1654.08 1786.46l-1016.64 1098 -2556.92 0 -2652.81 -2884.46 1370.02 0c0.1,27.64 12.89,1041.02 1366.39,1307.09 0,0 817.48,178.85 1510.39,-338.28l-16.94 866.03 1996.5 -48.39zm-3881.34 -1786.46l855.67 0c2.56,0.66 5.25,1.12 8.11,1.34 359.45,28.12 535.7,84.89 616.91,143.15 139.38,99.98 49.53,246.05 -74.94,312.1 -156.65,83.14 -410.01,113.02 -601.56,94.43 -271.46,-26.35 -508.12,-138.5 -656.72,-298.94 -117.57,-126.93 -145.33,-242.5 -147.48,-252.08z"/>
    <polygon class="fil2 str0" points="13719.39,6026.19 9503.94,1625.55 9500,1625.55 5280.61,6026.19 8175.37,9127.49 10843.89,9127.49 "/>
   </g>
  </g>
 </g>
</svg>
